<svg xmlns="http://www.w3.org/2000/svg" width="500" height="500" viewBox="0 0 500 500" version="1.1"><path d="M 166 132 L 166 137 185.967 137 L 205.934 137 206.217 148.250 L 206.500 159.500 250.250 159.761 L 294 160.021 294 148.511 L 294 137 304.035 137 L 314.070 137 313.595 160.250 C 313.334 173.037, 312.832 186.987, 312.481 191.250 L 311.842 199 316.421 199 L 321 199 321 191.559 C 321 187.466, 320.550 183.840, 320 183.500 C 319.380 183.117, 319 174.156, 319 159.941 L 319 137 326.500 137 L 334 137 334 132 L 334 127 250 127 L 166 127 166 132 M 206 177.790 C 206 196.788, 209.645 206.753, 220.155 216.483 C 237.622 232.654, 262.104 232.709, 279.725 216.617 C 290.318 206.943, 294 197.088, 294 178.411 L 294 166 250 166 L 206 166 206 177.790 M 230 235.052 C 196.449 239.221, 172.288 249.819, 162.410 264.701 C 159.464 269.141, 158.663 271.406, 158.291 276.356 L 157.829 282.500 203.028 308 C 227.888 322.025, 249.030 333.500, 250.012 333.500 C 250.993 333.500, 272.127 322.025, 296.977 308 L 342.159 282.500 341.703 276.356 C 340.657 262.254, 326.401 249.920, 301.500 241.575 C 283.936 235.689, 249.882 232.582, 230 235.052 M 102.667 282.667 C 99.685 285.648, 109.239 290.587, 153.881 309.139 C 156.723 310.320, 158.877 311.457, 158.668 311.665 C 158.460 311.873, 143.825 306.859, 126.147 300.522 C 108.469 294.185, 93.298 289, 92.433 289 C 91.375 289, 90.965 289.735, 91.180 291.250 C 91.464 293.245, 95.599 294.974, 127.657 306.500 C 147.543 313.650, 163.686 319.632, 163.530 319.793 C 163.374 319.955, 145.363 314.927, 123.505 308.620 C 101.646 302.314, 83.141 297.392, 82.381 297.684 C 81.622 297.975, 81 299.048, 81 300.068 C 81 301.416, 82.297 302.307, 85.750 303.330 C 88.362 304.104, 106.801 309.384, 126.723 315.062 C 146.646 320.741, 162.791 325.542, 162.601 325.732 C 162.411 325.922, 143.396 322.010, 120.345 317.039 C 97.293 312.068, 77.211 308, 75.717 308 C 73.718 308, 73 308.500, 73 309.893 C 73 310.934, 73.563 311.985, 74.250 312.229 C 74.938 312.472, 96.082 317.133, 121.237 322.586 C 146.393 328.039, 166.613 332.622, 166.171 332.772 C 165.730 332.922, 143.853 329.920, 117.557 326.102 C 91.261 322.284, 69.129 319.397, 68.373 319.687 C 66.954 320.232, 66.419 323.969, 67.750 324.040 C 70.422 324.183, 168.203 338.826, 167 338.903 C 166.175 338.956, 143.675 337.424, 117 335.500 C 90.325 333.576, 67.248 332.001, 65.719 332 C 62.826 332, 61.010 334.410, 62.659 336.059 C 63.168 336.568, 87.640 338.675, 117.042 340.742 L 170.500 344.500 116.500 345 C 63.333 345.492, 62.500 345.531, 62.500 347.500 C 62.500 349.493, 63.167 349.500, 250 349.500 C 436.833 349.500, 437.500 349.493, 437.500 347.500 C 437.500 345.531, 436.667 345.492, 383.500 345 L 329.500 344.500 382.952 340.748 C 412.350 338.685, 436.823 336.577, 437.335 336.065 C 438.993 334.407, 437.178 332, 434.268 332 C 432.732 332, 410.330 333.574, 384.487 335.498 C 358.644 337.422, 336.600 338.952, 335.500 338.899 C 334.400 338.845, 355.775 335.500, 383 331.465 C 410.225 327.430, 432.613 324.100, 432.750 324.064 C 433.405 323.896, 432.898 320.055, 432.161 319.599 C 431.699 319.314, 409.612 322.213, 383.077 326.040 C 356.543 329.868, 334.308 332.966, 333.667 332.924 C 333.025 332.882, 353.650 328.264, 379.500 322.662 C 423.804 313.061, 426.518 312.348, 426.820 310.238 C 427.082 308.401, 426.662 308, 424.478 308 C 423.015 308, 402.900 312.066, 379.778 317.036 C 356.656 322.006, 337.584 325.918, 337.396 325.729 C 337.207 325.541, 353.354 320.741, 373.277 315.062 C 393.199 309.384, 411.637 304.104, 414.250 303.330 C 417.703 302.307, 419 301.416, 419 300.068 C 419 299.048, 418.378 297.975, 417.619 297.684 C 416.859 297.392, 398.354 302.314, 376.495 308.620 C 354.637 314.927, 336.625 319.955, 336.468 319.793 C 336.312 319.632, 351.780 313.928, 370.842 307.118 C 389.904 300.308, 406.498 294.119, 407.718 293.366 C 410.070 291.913, 409.852 289, 407.390 289 C 406.623 289, 391.531 294.185, 373.853 300.522 C 356.175 306.859, 341.540 311.873, 341.332 311.665 C 341.123 311.457, 343.277 310.320, 346.119 309.139 C 348.960 307.959, 361.795 302.440, 374.642 296.875 C 392.856 288.986, 398 286.357, 398 284.938 C 398 283.937, 397.567 282.850, 397.037 282.523 C 396.507 282.195, 363.207 296.116, 323.037 313.457 L 250 344.986 177.047 313.493 C 136.923 296.172, 103.923 282, 103.714 282 C 103.505 282, 103.033 282.300, 102.667 282.667 M 62.280 356.020 C 59.202 357.259, 58.272 361.538, 60.536 364.040 C 62.272 365.958, 64.167 366, 148.033 366 C 224.781 366, 233.892 366.165, 235.061 367.573 C 241.130 374.887, 258.870 374.887, 264.939 367.573 C 266.108 366.165, 275.231 366, 352.099 366 L 437.954 366 439.443 363.728 C 441.389 360.757, 440.383 357.096, 437.298 355.923 C 434.115 354.713, 65.291 354.808, 62.280 356.020" stroke="none" fill="#f7f7f7" fill-rule="evenodd"/><path d="M 0 250.002 L 0 500.004 250.250 499.752 L 500.500 499.500 500.752 249.750 L 501.004 0 250.502 0 L 0 0 0 250.002 M 0.492 250.500 C 0.492 388, 0.608 444.101, 0.750 375.170 C 0.892 306.238, 0.892 193.738, 0.750 125.170 C 0.608 56.601, 0.492 113, 0.492 250.500 M 166 132 L 166 137 185.967 137 L 205.934 137 206.217 148.250 L 206.500 159.500 250.250 159.761 L 294 160.021 294 148.511 L 294 137 304.035 137 L 314.070 137 313.595 160.250 C 313.334 173.037, 312.832 186.987, 312.481 191.250 L 311.842 199 316.421 199 L 321 199 321 191.559 C 321 187.466, 320.550 183.840, 320 183.500 C 319.380 183.117, 319 174.156, 319 159.941 L 319 137 326.500 137 L 334 137 334 132 L 334 127 250 127 L 166 127 166 132 M 206 177.790 C 206 196.788, 209.645 206.753, 220.155 216.483 C 237.622 232.654, 262.104 232.709, 279.725 216.617 C 290.318 206.943, 294 197.088, 294 178.411 L 294 166 250 166 L 206 166 206 177.790 M 230 235.052 C 196.449 239.221, 172.288 249.819, 162.410 264.701 C 159.464 269.141, 158.663 271.406, 158.291 276.356 L 157.829 282.500 203.028 308 C 227.888 322.025, 249.030 333.500, 250.012 333.500 C 250.993 333.500, 272.127 322.025, 296.977 308 L 342.159 282.500 341.703 276.356 C 340.657 262.254, 326.401 249.920, 301.500 241.575 C 283.936 235.689, 249.882 232.582, 230 235.052 M 102.667 282.667 C 99.685 285.648, 109.239 290.587, 153.881 309.139 C 156.723 310.320, 158.877 311.457, 158.668 311.665 C 158.460 311.873, 143.825 306.859, 126.147 300.522 C 108.469 294.185, 93.298 289, 92.433 289 C 91.375 289, 90.965 289.735, 91.180 291.250 C 91.464 293.245, 95.599 294.974, 127.657 306.500 C 147.543 313.650, 163.686 319.632, 163.530 319.793 C 163.374 319.955, 145.363 314.927, 123.505 308.620 C 101.646 302.314, 83.141 297.392, 82.381 297.684 C 81.622 297.975, 81 299.048, 81 300.068 C 81 301.416, 82.297 302.307, 85.750 303.330 C 88.362 304.104, 106.801 309.384, 126.723 315.062 C 146.646 320.741, 162.791 325.542, 162.601 325.732 C 162.411 325.922, 143.396 322.010, 120.345 317.039 C 97.293 312.068, 77.211 308, 75.717 308 C 73.718 308, 73 308.500, 73 309.893 C 73 310.934, 73.563 311.985, 74.250 312.229 C 74.938 312.472, 96.082 317.133, 121.237 322.586 C 146.393 328.039, 166.613 332.622, 166.171 332.772 C 165.730 332.922, 143.853 329.920, 117.557 326.102 C 91.261 322.284, 69.129 319.397, 68.373 319.687 C 66.954 320.232, 66.419 323.969, 67.750 324.040 C 70.422 324.183, 168.203 338.826, 167 338.903 C 166.175 338.956, 143.675 337.424, 117 335.500 C 90.325 333.576, 67.248 332.001, 65.719 332 C 62.826 332, 61.010 334.410, 62.659 336.059 C 63.168 336.568, 87.640 338.675, 117.042 340.742 L 170.500 344.500 116.500 345 C 63.333 345.492, 62.500 345.531, 62.500 347.500 C 62.500 349.493, 63.167 349.500, 250 349.500 C 436.833 349.500, 437.500 349.493, 437.500 347.500 C 437.500 345.531, 436.667 345.492, 383.500 345 L 329.500 344.500 382.952 340.748 C 412.350 338.685, 436.823 336.577, 437.335 336.065 C 438.993 334.407, 437.178 332, 434.268 332 C 432.732 332, 410.330 333.574, 384.487 335.498 C 358.644 337.422, 336.600 338.952, 335.500 338.899 C 334.400 338.845, 355.775 335.500, 383 331.465 C 410.225 327.430, 432.613 324.100, 432.750 324.064 C 433.405 323.896, 432.898 320.055, 432.161 319.599 C 431.699 319.314, 409.612 322.213, 383.077 326.040 C 356.543 329.868, 334.308 332.966, 333.667 332.924 C 333.025 332.882, 353.650 328.264, 379.500 322.662 C 423.804 313.061, 426.518 312.348, 426.820 310.238 C 427.082 308.401, 426.662 308, 424.478 308 C 423.015 308, 402.900 312.066, 379.778 317.036 C 356.656 322.006, 337.584 325.918, 337.396 325.729 C 337.207 325.541, 353.354 320.741, 373.277 315.062 C 393.199 309.384, 411.637 304.104, 414.250 303.330 C 417.703 302.307, 419 301.416, 419 300.068 C 419 299.048, 418.378 297.975, 417.619 297.684 C 416.859 297.392, 398.354 302.314, 376.495 308.620 C 354.637 314.927, 336.625 319.955, 336.468 319.793 C 336.312 319.632, 351.780 313.928, 370.842 307.118 C 389.904 300.308, 406.498 294.119, 407.718 293.366 C 410.070 291.913, 409.852 289, 407.390 289 C 406.623 289, 391.531 294.185, 373.853 300.522 C 356.175 306.859, 341.540 311.873, 341.332 311.665 C 341.123 311.457, 343.277 310.320, 346.119 309.139 C 348.960 307.959, 361.795 302.440, 374.642 296.875 C 392.856 288.986, 398 286.357, 398 284.938 C 398 283.937, 397.567 282.850, 397.037 282.523 C 396.507 282.195, 363.207 296.116, 323.037 313.457 L 250 344.986 177.047 313.493 C 136.923 296.172, 103.923 282, 103.714 282 C 103.505 282, 103.033 282.300, 102.667 282.667 M 62.280 356.020 C 59.202 357.259, 58.272 361.538, 60.536 364.040 C 62.272 365.958, 64.167 366, 148.033 366 C 224.781 366, 233.892 366.165, 235.061 367.573 C 241.130 374.887, 258.870 374.887, 264.939 367.573 C 266.108 366.165, 275.231 366, 352.099 366 L 437.954 366 439.443 363.728 C 441.389 360.757, 440.383 357.096, 437.298 355.923 C 434.115 354.713, 65.291 354.808, 62.280 356.020" stroke="none" fill="#040404" fill-rule="evenodd"/></svg>